<svg xmlns="http://www.w3.org/2000/svg" width="24.856" height="27.276" viewBox="0 0 24.856 27.276">
  <g id="add-user" transform="translate(-20.114)">
    <g id="Group_2847" data-name="Group 2847" transform="translate(20.114)">
      <path id="Path_3363" data-name="Path 3363" d="M30.547,216.915a7.245,7.245,0,0,1,3.834-6.41h0a3.172,3.172,0,0,1,.471-.22,8.512,8.512,0,0,0-3.614-.786H28.85a8.71,8.71,0,0,0-8.736,8.7v2.2a.926.926,0,0,0,.943.943h11a5.338,5.338,0,0,1-.314-.44A7.094,7.094,0,0,1,30.547,216.915Z" transform="translate(-20.114 -196.898)" fill="#fff"/>
      <path id="Path_3364" data-name="Path 3364" d="M94.86,11.564a5.806,5.806,0,0,0,4.085-1.7,5.766,5.766,0,0,0,0-8.17,5.766,5.766,0,0,0-8.17,0,5.862,5.862,0,0,0-1.7,4.085A5.807,5.807,0,0,0,94.86,11.564Z" transform="translate(-84.93 0)" fill="#fff"/>
    </g>
    <path id="Path_3365" data-name="Path 3365" d="M198.214,211.592a7.444,7.444,0,0,0-2.954.628c-.157.063-.314.157-.471.22h0a7.319,7.319,0,0,0-3.834,6.41,7.094,7.094,0,0,0,1.194,3.991,3.819,3.819,0,0,0,.314.44,7.28,7.28,0,1,0,5.751-11.69Z" transform="translate(-160.565 -198.865)" fill="#ffbc00"/>
    <path id="Path_3366" data-name="Path 3366" d="M257.1,279.923v-1.665h1.665a.943.943,0,0,0,0-1.885H257.1v-1.665a.943.943,0,0,0-1.885,0v1.665h-1.665a.943.943,0,0,0,0,1.885h1.665v1.665a.943.943,0,0,0,1.885,0Z" transform="translate(-218.507 -257.298)" fill="#3a2c51"/>
  </g>
</svg>
