<svg xmlns="http://www.w3.org/2000/svg" width="39.493" height="39.649" viewBox="0 0 39.493 39.649">
  <g id="add-friend" transform="translate(-1)">
    <path id="Path_3389" data-name="Path 3389" d="M118.983,17.966a8.983,8.983,0,1,1,8.983-8.983A8.993,8.993,0,0,1,118.983,17.966Z" transform="translate(-100.559)"/>
    <g id="Group_2940" data-name="Group 2940" transform="translate(1 16.417)">
      <g id="Group_2939" data-name="Group 2939" transform="translate(0 1.946)">
        <path id="Path_3390" data-name="Path 3390" d="M21.908,243.311a10.391,10.391,0,0,1,1.526-5.434,11.281,11.281,0,0,1-11.317-.752A17.46,17.46,0,0,0,1,253.378v3.872a1.162,1.162,0,0,0,1.162,1.162H34.686a1.162,1.162,0,0,0,1.162-1.162v-3.872c0-.07,0-.14,0-.21a10.454,10.454,0,0,1-13.936-9.857Z" transform="translate(-1 -237.126)"/>
      </g>
      <path id="Path_3391" data-name="Path 3391" d="M309.131,212a8.131,8.131,0,1,0,8.131,8.131A8.14,8.14,0,0,0,309.131,212Zm2.323,9.293h-1.162v1.162a1.162,1.162,0,1,1-2.323,0v-1.162h-1.162a1.162,1.162,0,1,1,0-2.323h1.162v-1.162a1.162,1.162,0,1,1,2.323,0v1.162h1.162a1.162,1.162,0,1,1,0,2.323Z" transform="translate(-277.768 -212)"/>
    </g>
  </g>
</svg>
