<svg xmlns="http://www.w3.org/2000/svg" width="32.005" height="26.879" viewBox="0 0 32.005 26.879">
  <g id="photo-camera_1_" data-name="photo-camera (1)" transform="translate(0 -41)">
    <circle id="Ellipse_184" data-name="Ellipse 184" cx="5" cy="5" r="5" transform="translate(11.005 52)"/>
    <path id="Path_3389" data-name="Path 3389" d="M152.492,44.125l-.324-1.618A1.88,1.88,0,0,0,150.33,41H139.865a1.88,1.88,0,0,0-1.839,1.508l-.324,1.618Z" transform="translate(-129.095)"/>
    <path id="Path_3390" data-name="Path 3390" d="M29.192,121H2.813A2.816,2.816,0,0,0,0,123.813v16.252a2.816,2.816,0,0,0,2.813,2.813H29.192A2.816,2.816,0,0,0,32,140.065V123.813A2.816,2.816,0,0,0,29.192,121ZM8,126.876H5A.938.938,0,1,1,5,125H8a.938.938,0,1,1,0,1.875Zm8,12a6.938,6.938,0,1,1,6.939-6.938A6.946,6.946,0,0,1,16,138.878Z" transform="translate(0 -74.999)"/>
  </g>
</svg>
