<svg xmlns="http://www.w3.org/2000/svg" xmlns:xlink="http://www.w3.org/1999/xlink" width="169" height="76" viewBox="0 0 169 76">
  <defs>
    <filter id="message" x="70.883" y="18" width="40" height="40" filterUnits="userSpaceOnUse">
      <feOffset dy="3" input="SourceAlpha"/>
      <feGaussianBlur stdDeviation="3" result="blur"/>
      <feFlood flood-opacity="0.161"/>
      <feComposite operator="in" in2="blur"/>
      <feComposite in="SourceGraphic"/>
    </filter>
    <filter id="Ellipse_135" x="0" y="0" width="76" height="76" filterUnits="userSpaceOnUse">
      <feOffset dy="3" input="SourceAlpha"/>
      <feGaussianBlur stdDeviation="3" result="blur-2"/>
      <feFlood flood-opacity="0.4"/>
      <feComposite operator="in" in2="blur-2"/>
      <feComposite in="SourceGraphic"/>
    </filter>
  </defs>
  <g id="Group_2646" data-name="Group 2646" transform="translate(-2862 -2919)">
    <g id="Group_2645" data-name="Group 2645" transform="translate(9)">
      <path id="Rectangle_1955" data-name="Rectangle 1955" d="M0,0H111a20,20,0,0,1,20,20v6a20,20,0,0,1-20,20H0a0,0,0,0,1,0,0V0A0,0,0,0,1,0,0Z" transform="translate(2891 2931)"/>
      <text id="Chat" transform="translate(2962 2962)" fill="#fff" font-size="20" font-family="SegoeUI-Bold, Segoe UI" font-weight="700"><tspan x="0" y="0">Chat</tspan></text>
      <g transform="matrix(1, 0, 0, 1, 2853, 2919)" filter="url(#message)">
        <path id="message-2" data-name="message" d="M11,0a10.98,10.98,0,0,1,9.895,15.781L22,22l-6.219-1.105A11,11,0,1,1,11,0Zm4.813,12.375a.688.688,0,1,0-.688-.688A.688.688,0,0,0,15.813,12.375Zm-4.813,0a.688.688,0,1,0-.688-.688A.688.688,0,0,0,11,12.375Zm-4.813,0a.688.688,0,1,0-.688-.688A.688.688,0,0,0,6.188,12.375Z" transform="translate(79.88 24)" fill="#fff"/>
      </g>
      <g transform="matrix(1, 0, 0, 1, 2853, 2919)" filter="url(#Ellipse_135)">
        <circle id="Ellipse_135-2" data-name="Ellipse 135" cx="29" cy="29" r="29" transform="translate(9 6)" fill="#fff"/>
      </g>
    </g>
    <path id="map-location" d="M30.748,3.868a13.206,13.206,0,0,0-18.677,0c-4.616,4.616-5.19,13.3-1.242,18.561L21.41,37.71,31.975,22.451C35.938,17.168,35.365,8.484,30.748,3.868ZM21.532,17.906a4.821,4.821,0,1,1,4.821-4.821A4.827,4.827,0,0,1,21.532,17.906Z" transform="translate(2878.736 2935)" fill="#f5730b"/>
  </g>
</svg>
