<svg xmlns="http://www.w3.org/2000/svg" xmlns:xlink="http://www.w3.org/1999/xlink" width="132.117" height="48" viewBox="0 0 132.117 48">
  <defs>
    <filter id="message" x="0" y="6" width="40" height="42" filterUnits="userSpaceOnUse">
      <feOffset dy="3" input="SourceAlpha"/>
      <feGaussianBlur stdDeviation="3" result="blur"/>
      <feFlood flood-opacity="0.161"/>
      <feComposite operator="in" in2="blur"/>
      <feComposite in="SourceGraphic"/>
    </filter>
  </defs>
  <g id="Group_2654" data-name="Group 2654" transform="translate(-178.883 -393)">
    <path id="Rectangle_1955" data-name="Rectangle 1955" d="M0,0H111a20,20,0,0,1,20,20v6a20,20,0,0,1-20,20H0a0,0,0,0,1,0,0V0A0,0,0,0,1,0,0Z" transform="translate(180 393)" fill="#045c76"/>
    <text id="Confirm" transform="translate(215 424)" fill="#fff" font-size="20" font-family="SegoeUI-Bold, Segoe UI" font-weight="700"><tspan x="0" y="0">Confirm</tspan></text>
    <g transform="matrix(1, 0, 0, 1, 178.88, 393)" filter="url(#message)">
      <path id="message-2" data-name="message" d="M11,0c6.075,0,11,5.373,11,12a12.832,12.832,0,0,1-1.105,5.216L22,24l-6.219-1.206A10.193,10.193,0,0,1,11,24C4.925,24,0,18.627,0,12S4.925,0,11,0Zm4.813,13.5a.753.753,0,1,0-.688-.75A.721.721,0,0,0,15.813,13.5ZM11,13.5A.753.753,0,0,0,11,12c-.38,0-.688.75-.688.75S10.62,13.5,11,13.5Zm-4.813,0a.753.753,0,0,0,0-1.5.753.753,0,0,0,0,1.5Z" transform="translate(9 12)" fill="#fff"/>
    </g>
  </g>
</svg>
