<svg xmlns="http://www.w3.org/2000/svg" width="512" height="319.8" viewBox="0 0 512 319.8">
  <g id="credit-card_8_" data-name="credit-card (8)" transform="translate(0 -96.1)">
    <path id="Path_3484" data-name="Path 3484" d="M490.755,415.9H21.245A21.245,21.245,0,0,1,0,394.655V117.345A21.245,21.245,0,0,1,21.245,96.1h469.51A21.245,21.245,0,0,1,512,117.345v277.31A21.245,21.245,0,0,1,490.755,415.9Z" fill="#192a55"/>
    <path id="Path_3489" data-name="Path 3489" d="M512,117.346V394.655A21.239,21.239,0,0,1,490.755,415.9H252.208c134.883-33.811,234.776-155.841,234.776-301.209q0-9.369-.552-18.589h4.323A21.237,21.237,0,0,1,512,117.346Z" fill="#1f3c76"/>
    <path id="Path_3490" data-name="Path 3490" d="M512,328.339v66.316A21.239,21.239,0,0,1,490.755,415.9H362.415A310.222,310.222,0,0,0,512,328.339Z" fill="#192a55"/>
  </g>
</svg>
