<svg xmlns="http://www.w3.org/2000/svg" width="139.705" height="27" viewBox="0 0 139.705 27">
  <g id="Group_3088" data-name="Group 3088" transform="translate(-109.295 -527)">
    <g id="Group_3074" data-name="Group 3074" transform="translate(-175 16)">
      <g id="Group_3071" data-name="Group 3071" transform="translate(289.314 524.514)">
        <g id="Group_2694" data-name="Group 2694">
          <path id="Path_3064" data-name="Path 3064" d="M200.063,89.456c-1.88,1.473-4.1,3.754-4.1,5.128a4.058,4.058,0,0,0,4.014,4.1h.088a4.106,4.106,0,0,0,4.1-4.1C204.164,93.21,201.943,90.929,200.063,89.456Z" transform="translate(-195.961 -89.456)" fill="#f47d1e"/>
        </g>
      </g>
      <g id="Group_3072" data-name="Group 3072" transform="translate(284.295 512)">
        <g id="Group_2692" data-name="Group 2692">
          <g id="Group_2691" data-name="Group 2691">
            <path id="Path_3062" data-name="Path 3062" d="M225.281,171.936Z" transform="translate(-216.16 -147.884)" fill="#055067"/>
          </g>
        </g>
      </g>
    </g>
    <text id="SOSURE_GAS" data-name="SOSURE GAS" transform="translate(191 549)" fill="#2e7184" font-size="20" font-family="SegoeUI, Segoe UI"><tspan x="-57.437" y="0">SOSURE GAS</tspan></text>
    <path id="Path_3063" data-name="Path 3063" d="M178.32,14.73c0-4.02-5.979-11.33-9.117-14.73-3.138,3.427-9.124,10.782-9.124,14.73a9.354,9.354,0,0,0,2.692,6.583,8.915,8.915,0,0,0,12.858,0A9.354,9.354,0,0,0,178.32,14.73ZM169.2,23.981a6.272,6.272,0,0,1-6.339-6.2q0-.068,0-.136c0-1.477.991-3.2,2.946-5.116h0a25.424,25.424,0,0,1,2.745-2.321,1.119,1.119,0,0,1,1.3,0,25.4,25.4,0,0,1,2.745,2.322c1.955,1.916,2.946,3.638,2.946,5.116A6.347,6.347,0,0,1,169.2,23.981Z" transform="translate(-50.784 528)" fill="#055067"/>
  </g>
</svg>
