<svg xmlns="http://www.w3.org/2000/svg" width="79" height="36" viewBox="0 0 79 36">
  <g id="Group_2239" data-name="Group 2239" transform="translate(-130 -52)">
    <g id="Rectangle_1929" data-name="Rectangle 1929" transform="translate(130 52)" fill="#fff" stroke="#707070" stroke-width="0.2">
      <rect width="79" height="36" rx="3" stroke="none"/>
      <rect x="0.1" y="0.1" width="78.8" height="35.8" rx="2.9" fill="none"/>
    </g>
    <g id="mastercard" transform="translate(146.886 -44.8)">
      <path id="Path_2843" data-name="Path 2843" d="M229.226,114.613a13.813,13.813,0,0,1-27.626,0h0a13.813,13.813,0,1,1,27.626,0Z" transform="translate(-183.183 0)" fill="#ffb600"/>
      <path id="Path_2844" data-name="Path 2844" d="M215.413,100.8a13.849,13.849,0,0,1,13.813,13.813h0a13.813,13.813,0,1,1-27.626,0" transform="translate(-183.183)" fill="#f7981d"/>
      <path id="Path_2845" data-name="Path 2845" d="M352.8,100.8a13.849,13.849,0,0,1,13.813,13.813h0A13.8,13.8,0,0,1,352.8,128.426" transform="translate(-320.57)" fill="#ff8500"/>
      <path id="Path_2846" data-name="Path 2846" d="M13.667,100.8a13.813,13.813,0,0,0,.146,27.626,13.974,13.974,0,0,0,9.282-3.581h0a13.135,13.135,0,0,0,1.389-1.462h-2.85a16.857,16.857,0,0,1-1.023-1.389h4.9a9.364,9.364,0,0,0,.8-1.462h-6.5a8.711,8.711,0,0,1-.585-1.462h7.6a14.512,14.512,0,0,0,.731-4.385,18.864,18.864,0,0,0-.292-2.923H18.783a10.685,10.685,0,0,1,.365-1.462h7.6a8.71,8.71,0,0,0-.585-1.462H19.733a14.493,14.493,0,0,1,.8-1.462h4.9a6.95,6.95,0,0,0-1.1-1.462h-2.7a12.458,12.458,0,0,1,1.389-1.389,13.486,13.486,0,0,0-9.282-3.581C13.74,100.8,13.74,100.8,13.667,100.8Z" fill="#ff5050"/>
      <path id="Path_2847" data-name="Path 2847" d="M0,116.067A13.8,13.8,0,0,0,13.813,129.88a13.974,13.974,0,0,0,9.282-3.581h0a13.138,13.138,0,0,0,1.389-1.462h-2.85a16.857,16.857,0,0,1-1.023-1.389h4.9a9.364,9.364,0,0,0,.8-1.462h-6.5a8.711,8.711,0,0,1-.585-1.462h7.6a14.512,14.512,0,0,0,.731-4.385,18.864,18.864,0,0,0-.292-2.923H18.783a10.685,10.685,0,0,1,.365-1.462h7.6a8.71,8.71,0,0,0-.585-1.462H19.733a14.493,14.493,0,0,1,.8-1.462h4.9a6.95,6.95,0,0,0-1.1-1.462h-2.7a12.458,12.458,0,0,1,1.389-1.389A13.486,13.486,0,0,0,13.74,102.4h-.073" transform="translate(0 -1.454)" fill="#e52836"/>
      <path id="Path_2848" data-name="Path 2848" d="M149.746,129.88a13.974,13.974,0,0,0,9.282-3.581h0a13.137,13.137,0,0,0,1.389-1.462h-2.85a16.863,16.863,0,0,1-1.023-1.389h4.9a9.364,9.364,0,0,0,.8-1.462h-6.5a8.709,8.709,0,0,1-.585-1.462h7.6a14.513,14.513,0,0,0,.731-4.385,18.863,18.863,0,0,0-.292-2.923h-8.478a10.688,10.688,0,0,1,.365-1.462h7.6a8.71,8.71,0,0,0-.585-1.462h-6.431a14.5,14.5,0,0,1,.8-1.462h4.9a6.951,6.951,0,0,0-1.1-1.462h-2.7a12.457,12.457,0,0,1,1.389-1.389,13.486,13.486,0,0,0-9.282-3.581H149.6" transform="translate(-135.933 -1.454)" fill="#cb2026"/>
      <g id="Group_2235" data-name="Group 2235" transform="translate(1.316 111.032)">
        <path id="Path_2849" data-name="Path 2849" d="M183.719,226.431l.219-1.242a3.166,3.166,0,0,1-.365.073c-.512,0-.585-.292-.512-.439l.439-2.558h.8l.219-1.389h-.731l.146-.877h-1.462s-.877,4.824-.877,5.408a1.1,1.1,0,0,0,1.169,1.242A2.243,2.243,0,0,0,183.719,226.431Z" transform="translate(-166.325 -219.342)" fill="#fff"/>
        <path id="Path_2850" data-name="Path 2850" d="M210.4,232a2.325,2.325,0,0,0,2.558,2.558,3.794,3.794,0,0,0,1.535-.219l.292-1.389a4.382,4.382,0,0,1-1.535.365c-1.608,0-1.316-1.169-1.316-1.169h3a9.475,9.475,0,0,0,.219-1.316,1.98,1.98,0,0,0-2.119-2.119C211.5,228.562,210.4,230.17,210.4,232Zm2.558-2.119c.8,0,.658.95.658,1.023h-1.608C212.008,230.827,212.154,229.877,212.958,229.877Z" transform="translate(-192.494 -227.246)" fill="#fff"/>
        <path id="Path_2851" data-name="Path 2851" d="M300.02,219.889l.292-1.608a3.591,3.591,0,0,1-1.242.365c-1.023,0-1.462-.8-1.462-1.681,0-1.754.877-2.7,1.9-2.7a2.441,2.441,0,0,1,1.316.439l.219-1.535a5.138,5.138,0,0,0-1.681-.365c-1.681,0-3.362,1.462-3.362,4.239,0,1.827.877,3.07,2.631,3.07A6.558,6.558,0,0,0,300.02,219.889Z" transform="translate(-270.274 -212.8)" fill="#fff"/>
        <path id="Path_2852" data-name="Path 2852" d="M89.177,227.2a5.176,5.176,0,0,0-1.754.292l-.219,1.242a4.32,4.32,0,0,1,1.608-.292c.512,0,.95.073.95.512,0,.292-.073.365-.073.365h-.658c-1.242,0-2.631.512-2.631,2.193,0,1.315.877,1.608,1.389,1.608a2.2,2.2,0,0,0,1.535-.658l-.073.585h1.316l.585-4.02A1.732,1.732,0,0,0,89.177,227.2Zm.292,3.289c0,.219-.146,1.389-1.023,1.389a.57.57,0,0,1-.585-.585c0-.365.219-.877,1.316-.877A1.153,1.153,0,0,0,89.47,230.489Z" transform="translate(-79.822 -225.884)" fill="#fff"/>
        <path id="Path_2853" data-name="Path 2853" d="M136.881,232.393a1.873,1.873,0,0,0,2.193-1.9c0-1.827-1.754-1.462-1.754-2.193,0-.365.292-.512.8-.512.219,0,1.023.073,1.023.073l.219-1.316a5.552,5.552,0,0,0-1.389-.146c-1.1,0-2.192.438-2.192,1.9,0,1.681,1.827,1.535,1.827,2.193,0,.439-.512.512-.877.512a4.78,4.78,0,0,1-1.316-.219L135.2,232.1C135.273,232.247,135.639,232.393,136.881,232.393Z" transform="translate(-124.164 -225.158)" fill="#fff"/>
        <path id="Path_2854" data-name="Path 2854" d="M431.366,214.4l-.292,1.973a2.026,2.026,0,0,0-1.389-.731c-1.316,0-2.485,1.608-2.485,3.508,0,1.169.585,2.412,1.827,2.412a1.951,1.951,0,0,0,1.389-.585l-.073.512H431.8l1.1-7.016Zm-.658,3.873c0,.8-.365,1.827-1.169,1.827-.512,0-.8-.439-.8-1.169,0-1.169.512-1.9,1.169-1.9C430.416,217.031,430.708,217.4,430.708,218.273Z" transform="translate(-389.488 -214.254)" fill="#fff"/>
        <path id="Path_2855" data-name="Path 2855" d="M15.789,221.416l.877-5.262.146,5.262h1.023l1.9-5.262-.8,5.262h1.535l1.169-7.016H19.224l-1.462,4.312-.073-4.312H15.569L14.4,221.416Z" transform="translate(-14.4 -214.254)" fill="#fff"/>
        <path id="Path_2856" data-name="Path 2856" d="M261.608,234.5c.439-2.412.512-4.385,1.535-4.02a5.735,5.735,0,0,1,.512-1.681h-.292c-.658,0-1.169.877-1.169.877l.146-.8H260.95l-.95,5.7h1.608Z" transform="translate(-237.563 -227.338)" fill="#fff"/>
        <path id="Path_2857" data-name="Path 2857" d="M349.177,227.2a5.176,5.176,0,0,0-1.754.292l-.219,1.242a4.32,4.32,0,0,1,1.608-.292c.512,0,.95.073.95.512,0,.292-.073.365-.073.365h-.658c-1.242,0-2.631.512-2.631,2.193,0,1.315.877,1.608,1.389,1.608a2.2,2.2,0,0,0,1.535-.658l-.073.585h1.316l.585-4.02A1.707,1.707,0,0,0,349.177,227.2Zm.365,3.289c0,.219-.146,1.389-1.023,1.389a.57.57,0,0,1-.585-.585c0-.365.219-.877,1.315-.877C349.47,230.489,349.47,230.489,349.543,230.489Z" transform="translate(-316.07 -225.884)" fill="#fff"/>
        <path id="Path_2858" data-name="Path 2858" d="M396.008,234.5c.439-2.412.512-4.385,1.535-4.02a5.735,5.735,0,0,1,.512-1.681h-.292c-.658,0-1.169.877-1.169.877l.146-.8H395.35l-.95,5.7h1.608Z" transform="translate(-359.685 -227.338)" fill="#fff"/>
      </g>
      <g id="Group_2236" data-name="Group 2236" transform="translate(1.316 111.032)">
        <path id="Path_2859" data-name="Path 2859" d="M180,225.408a1.1,1.1,0,0,0,1.169,1.242,2.782,2.782,0,0,0,1.1-.219l.219-1.242a3.162,3.162,0,0,1-.365.073c-.512,0-.585-.292-.512-.439l.439-2.558h.8l.219-1.389h-.731l.146-.877" transform="translate(-164.871 -219.342)" fill="#dce5e5"/>
        <path id="Path_2860" data-name="Path 2860" d="M218.4,232c0,2.046.658,2.558,1.827,2.558a3.794,3.794,0,0,0,1.535-.219l.292-1.389a4.381,4.381,0,0,1-1.535.365c-1.608,0-1.316-1.169-1.316-1.169h3a9.475,9.475,0,0,0,.219-1.316,1.98,1.98,0,0,0-2.119-2.119C218.765,228.562,218.4,230.17,218.4,232Zm1.827-2.119c.8,0,.95.95.95,1.023h-1.9C219.277,230.827,219.423,229.877,220.227,229.877Z" transform="translate(-199.763 -227.246)" fill="#dce5e5"/>
        <path id="Path_2861" data-name="Path 2861" d="M307.289,219.889l.292-1.608a3.591,3.591,0,0,1-1.242.365c-1.023,0-1.462-.8-1.462-1.681,0-1.754.877-2.7,1.9-2.7a2.44,2.44,0,0,1,1.315.439l.219-1.535a5.138,5.138,0,0,0-1.681-.365c-1.681,0-2.631,1.462-2.631,4.239,0,1.827.146,3.07,1.9,3.07A6.559,6.559,0,0,0,307.289,219.889Z" transform="translate(-277.543 -212.8)" fill="#dce5e5"/>
        <path id="Path_2862" data-name="Path 2862" d="M87.2,230.262a4.32,4.32,0,0,1,1.608-.292c.512,0,.95.073.95.512,0,.292-.073.365-.073.365h-.658c-1.242,0-2.631.512-2.631,2.193,0,1.315.877,1.608,1.389,1.608a2.2,2.2,0,0,0,1.535-.658l-.073.585h1.316l.585-4.02c0-1.681-1.462-1.754-2.046-1.754m1.1,3.143a2.393,2.393,0,0,1-1.754,1.389.57.57,0,0,1-.585-.585c0-.365.219-.877,1.316-.877A5.968,5.968,0,0,0,90.2,231.943Z" transform="translate(-79.822 -227.338)" fill="#dce5e5"/>
        <path id="Path_2863" data-name="Path 2863" d="M136,232.247a6.186,6.186,0,0,0,1.681.146,1.873,1.873,0,0,0,2.193-1.9c0-1.827-1.754-1.462-1.754-2.193,0-.365.292-.512.8-.512.219,0,1.023.073,1.023.073l.219-1.316a5.553,5.553,0,0,0-1.389-.146c-1.1,0-1.462.438-1.462,1.9,0,1.681,1.1,1.535,1.1,2.193,0,.439-.512.512-.877.512" transform="translate(-124.891 -225.158)" fill="#dce5e5"/>
        <path id="Path_2864" data-name="Path 2864" d="M438.29,217.1a2.026,2.026,0,0,0-1.389-.731c-1.316,0-1.754,1.608-1.754,3.508,0,1.169-.146,2.412,1.1,2.412a1.951,1.951,0,0,0,1.389-.585l-.073.512h1.462l1.1-7.016m-1.9,3.8c0,.8-.658,1.827-1.462,1.827-.512,0-.8-.439-.8-1.169,0-1.169.512-1.9,1.169-1.9A1.117,1.117,0,0,1,438.217,219Z" transform="translate(-396.705 -214.981)" fill="#dce5e5"/>
        <path id="Path_2865" data-name="Path 2865" d="M15.789,221.416l.877-5.262.146,5.262h1.023l1.9-5.262-.8,5.262h1.535l1.169-7.016H19.808l-2.046,4.312-.073-4.312h-.8L14.4,221.416Z" transform="translate(-14.4 -214.254)" fill="#dce5e5"/>
        <path id="Path_2866" data-name="Path 2866" d="M260.8,234.5h1.535c.439-2.412.512-4.385,1.535-4.02a5.736,5.736,0,0,1,.512-1.681h-.292c-.658,0-1.169.877-1.169.877l.146-.8" transform="translate(-238.29 -227.338)" fill="#dce5e5"/>
        <path id="Path_2867" data-name="Path 2867" d="M347.2,230.262a4.32,4.32,0,0,1,1.608-.292c.512,0,.95.073.95.512,0,.292-.073.365-.073.365h-.658c-1.242,0-2.631.512-2.631,2.193,0,1.315.877,1.608,1.389,1.608a2.2,2.2,0,0,0,1.535-.658l-.073.585h1.315l.585-4.02c0-1.681-1.462-1.754-2.046-1.754m1.1,3.143a2.393,2.393,0,0,1-1.754,1.389.57.57,0,0,1-.585-.585c0-.365.219-.877,1.316-.877A6.426,6.426,0,0,0,350.2,231.943Z" transform="translate(-316.07 -227.338)" fill="#dce5e5"/>
        <path id="Path_2868" data-name="Path 2868" d="M395.2,234.5h1.535c.439-2.412.512-4.385,1.535-4.02a5.736,5.736,0,0,1,.512-1.681h-.292c-.658,0-1.169.877-1.169.877l.146-.8" transform="translate(-360.412 -227.338)" fill="#dce5e5"/>
      </g>
    </g>
  </g>
</svg>
