<svg xmlns="http://www.w3.org/2000/svg" width="33.35" height="23" viewBox="0 0 33.35 23">
  <g id="nigeria" transform="translate(0 -0.5)">
    <path id="Path_2832" data-name="Path 2832" d="M25.875,23.5H32.2a1.15,1.15,0,0,0,1.15-1.15V1.65A1.15,1.15,0,0,0,32.2.5H1.15A1.15,1.15,0,0,0,0,1.65v20.7A1.15,1.15,0,0,0,1.15,23.5Zm0,0" fill="#4c8056"/>
    <path id="Path_2833" data-name="Path 2833" d="M10.35.5v23H1.15A1.153,1.153,0,0,1,0,22.35V1.65A1.153,1.153,0,0,1,1.15.5Zm0,0" fill="#4c8056"/>
    <path id="Path_2834" data-name="Path 2834" d="M158.9.5h12.65v23H158.9Zm0,0" transform="translate(-148.548)" fill="#e6e7e8"/>
  </g>
</svg>
