<svg xmlns="http://www.w3.org/2000/svg" width="29.841" height="29.697" viewBox="0 0 29.841 29.697">
  <g id="Group_2943" data-name="Group 2943" transform="translate(-117.9 -552.521)">
    <g id="Group_2942" data-name="Group 2942">
      <g id="Group_2846" data-name="Group 2846" transform="translate(425.483 -13883.711)">
        <g id="customer-review_4_" data-name="customer-review (4)" transform="translate(-297.67 14436.232)">
          <g id="Group_2844" data-name="Group 2844" transform="translate(0 0)">
            <g id="Group_2838" data-name="Group 2838" transform="translate(0 0)">
              <path id="Path_3351" data-name="Path 3351" d="M177.642,0a7.591,7.591,0,0,0-.856,15.133V18.66l3.189-1.908,1.169-9.116L179.975,0Z" transform="translate(-170.051 0)" fill="#fff"/>
              <path id="Path_3352" data-name="Path 3352" d="M342.747,0h-2.414V16.753l2.632-1.575A7.591,7.591,0,0,0,342.747,0Z" transform="translate(-330.409 0)" fill="#fff"/>
            </g>
          </g>
          <g id="Group_2845" data-name="Group 2845" transform="translate(4.238 1.034)">
            <path id="Path_3359" data-name="Path 3359" d="M267.434,55.285l-3.786,1.187,2.365,3.185-.041,3.967,3.751-1.262,1.589-4.042-1.589-6.256Z" transform="translate(-263.648 -52.065)" fill="#055067"/>
            <path id="Path_3360" data-name="Path 3360" d="M344.1,63.625l-.041-3.967,2.365-3.185-3.785-1.187-2.308-3.22v10.3Z" transform="translate(-334.258 -52.065)" fill="#055067"/>
          </g>
        </g>
        <g id="customer-review_3_" data-name="customer-review (3)" transform="translate(-307.583 14449.554)">
          <path id="Path_3338" data-name="Path 3338" d="M13.092,357.384l-.715-.56-4.548,6.239-4.46-6.3-.791.619A6.684,6.684,0,0,0,0,362.678v3.092H15.67v-3.092A6.684,6.684,0,0,0,13.092,357.384Z" transform="translate(0 -349.393)" fill="#fff"/>
          <path id="Path_3339" data-name="Path 3339" d="M118.515,390.4l.951,1.349,1-1.358a5.288,5.288,0,0,1-1.949.008Z" transform="translate(-111.641 -381.069)" fill="#fff"/>
          <path id="Path_3340" data-name="Path 3340" d="M76.589,237.415a3.6,3.6,0,0,0,3.593-3.593v-.549a3.593,3.593,0,1,0-7.185,0v.549A3.6,3.6,0,0,0,76.589,237.415Z" transform="translate(-68.762 -229.68)" fill="#fff"/>
        </g>
      </g>
    </g>
  </g>
</svg>
